<svg width="2000" height="1424" viewBox="0 0 2000 1424" fill="none" xmlns="http://www.w3.org/2000/svg">
<g clip-path="url(#clip0_207_178)">
<rect width="2000" height="1422.22" transform="translate(0 0.81543)" fill="url(#paint0_linear_207_178)"/>
<path d="M53.1719 60.1685L52.7284 60.8416L53.0564 61.578L52.3833 61.1344L51.6469 61.4625L52.0905 60.7894L51.7624 60.053L52.4356 60.4966L53.1719 60.1685Z" fill="white"/>
<path d="M244.582 117.578L244.138 118.251L244.466 118.987L243.793 118.544L243.057 118.872L243.5 118.199L243.172 117.462L243.845 117.906L244.582 117.578Z" fill="white"/>
<path d="M127.582 183.578L127.138 184.251L127.466 184.987L126.793 184.544L126.057 184.872L126.5 184.199L126.172 183.462L126.845 183.906L127.582 183.578Z" fill="white"/>
<path d="M145.582 78.5779L145.138 79.251L145.466 79.9874L144.793 79.5439L144.057 79.8719L144.5 79.1988L144.172 78.4624L144.845 78.906L145.582 78.5779Z" fill="white"/>
<path d="M90.5816 103.578L90.138 104.251L90.4661 104.987L89.793 104.544L89.0566 104.872L89.5002 104.199L89.1721 103.462L89.8452 103.906L90.5816 103.578Z" fill="white"/>
<path d="M438.582 166.578L438.138 167.251L438.466 167.987L437.793 167.544L437.057 167.872L437.5 167.199L437.172 166.462L437.845 166.906L438.582 166.578Z" fill="white"/>
<path d="M263.582 62.5779L263.138 63.251L263.466 63.9874L262.793 63.5439L262.057 63.8719L262.5 63.1988L262.172 62.4624L262.845 62.906L263.582 62.5779Z" fill="white"/>
<path d="M687.582 120.578L687.138 121.251L687.466 121.987L686.793 121.544L686.057 121.872L686.5 121.199L686.172 120.462L686.845 120.906L687.582 120.578Z" fill="white"/>
<path d="M455.582 284.578L455.138 285.251L455.466 285.987L454.793 285.544L454.057 285.872L454.5 285.199L454.172 284.462L454.845 284.906L455.582 284.578Z" fill="white"/>
<path d="M262.582 205.578L262.138 206.251L262.466 206.987L261.793 206.544L261.057 206.872L261.5 206.199L261.172 205.462L261.845 205.906L262.582 205.578Z" fill="white"/>
<path d="M254.582 360.578L254.138 361.251L254.466 361.987L253.793 361.544L253.057 361.872L253.5 361.199L253.172 360.462L253.845 360.906L254.582 360.578Z" fill="white"/>
<path d="M852.582 346.578L852.138 347.251L852.466 347.987L851.793 347.544L851.057 347.872L851.5 347.199L851.172 346.462L851.845 346.906L852.582 346.578Z" fill="white"/>
<path d="M1045.58 149.578L1045.14 150.251L1045.47 150.987L1044.79 150.544L1044.06 150.872L1044.5 150.199L1044.17 149.462L1044.85 149.906L1045.58 149.578Z" fill="white"/>
<path d="M1320.58 325.578L1320.14 326.251L1320.47 326.987L1319.79 326.544L1319.06 326.872L1319.5 326.199L1319.17 325.462L1319.85 325.906L1320.58 325.578Z" fill="white"/>
<path d="M1194.58 639.578L1194.14 640.251L1194.47 640.987L1193.79 640.544L1193.06 640.872L1193.5 640.199L1193.17 639.462L1193.85 639.906L1194.58 639.578Z" fill="white"/>
<path d="M1323.58 839.578L1323.14 840.251L1323.47 840.987L1322.79 840.544L1322.06 840.872L1322.5 840.199L1322.17 839.462L1322.85 839.906L1323.58 839.578Z" fill="white"/>
<path d="M1014.58 874.578L1014.14 875.251L1014.47 875.987L1013.79 875.544L1013.06 875.872L1013.5 875.199L1013.17 874.462L1013.85 874.906L1014.58 874.578Z" fill="white"/>
<path d="M658.582 836.578L658.138 837.251L658.466 837.987L657.793 837.544L657.057 837.872L657.5 837.199L657.172 836.462L657.845 836.906L658.582 836.578Z" fill="white"/>
<path d="M834.582 457.578L834.138 458.251L834.466 458.987L833.793 458.544L833.057 458.872L833.5 458.199L833.172 457.462L833.845 457.906L834.582 457.578Z" fill="white"/>
<path d="M562.582 378.578L562.138 379.251L562.466 379.987L561.793 379.544L561.057 379.872L561.5 379.199L561.172 378.462L561.845 378.906L562.582 378.578Z" fill="white"/>
<path d="M353.582 756.578L353.138 757.251L353.466 757.987L352.793 757.544L352.057 757.872L352.5 757.199L352.172 756.462L352.845 756.906L353.582 756.578Z" fill="white"/>
<path d="M110.582 642.578L110.138 643.251L110.466 643.987L109.793 643.544L109.057 643.872L109.5 643.199L109.172 642.462L109.845 642.906L110.582 642.578Z" fill="white"/>
<path d="M113.582 295.578L113.138 296.251L113.466 296.987L112.793 296.544L112.057 296.872L112.5 296.199L112.172 295.462L112.845 295.906L113.582 295.578Z" fill="white"/>
<path d="M435.582 328.578L435.138 329.251L435.466 329.987L434.793 329.544L434.057 329.872L434.5 329.199L434.172 328.462L434.845 328.906L435.582 328.578Z" fill="white"/>
<path d="M1002.58 331.578L1002.14 332.251L1002.47 332.987L1001.79 332.544L1001.06 332.872L1001.5 332.199L1001.17 331.462L1001.85 331.906L1002.58 331.578Z" fill="white"/>
<path d="M893.582 566.578L893.138 567.251L893.466 567.987L892.793 567.544L892.057 567.872L892.5 567.199L892.172 566.462L892.845 566.906L893.582 566.578Z" fill="white"/>
<path d="M760.582 689.578L760.138 690.251L760.466 690.987L759.793 690.544L759.057 690.872L759.5 690.199L759.172 689.462L759.845 689.906L760.582 689.578Z" fill="white"/>
<path d="M576.582 411.578L576.138 412.251L576.466 412.987L575.793 412.544L575.057 412.872L575.5 412.199L575.172 411.462L575.845 411.906L576.582 411.578Z" fill="white"/>
<path d="M793.582 230.578L793.138 231.251L793.466 231.987L792.793 231.544L792.057 231.872L792.5 231.199L792.172 230.462L792.845 230.906L793.582 230.578Z" fill="white"/>
<path d="M148.582 745.578L148.138 746.251L148.466 746.987L147.793 746.544L147.057 746.872L147.5 746.199L147.172 745.462L147.845 745.906L148.582 745.578Z" fill="white"/>
<path d="M124.582 443.578L124.138 444.251L124.466 444.987L123.793 444.544L123.057 444.872L123.5 444.199L123.172 443.462L123.845 443.906L124.582 443.578Z" fill="white"/>
<path d="M675.582 432.578L675.138 433.251L675.466 433.987L674.793 433.544L674.057 433.872L674.5 433.199L674.172 432.462L674.845 432.906L675.582 432.578Z" fill="white"/>
<path d="M896.582 857.578L896.138 858.251L896.466 858.987L895.793 858.544L895.057 858.872L895.5 858.199L895.172 857.462L895.845 857.906L896.582 857.578Z" fill="white"/>
<path d="M518.582 945.578L518.138 946.251L518.466 946.987L517.793 946.544L517.057 946.872L517.5 946.199L517.172 945.462L517.845 945.906L518.582 945.578Z" fill="white"/>
<path d="M515.582 576.578L515.138 577.251L515.466 577.987L514.793 577.544L514.057 577.872L514.5 577.199L514.172 576.462L514.845 576.906L515.582 576.578Z" fill="white"/>
<path d="M1291.58 123.578L1291.14 124.251L1291.47 124.987L1290.79 124.544L1290.06 124.872L1290.5 124.199L1290.17 123.462L1290.85 123.906L1291.58 123.578Z" fill="white"/>
<path d="M1376.58 81.5779L1376.14 82.251L1376.47 82.9874L1375.79 82.5439L1375.06 82.8719L1375.5 82.1988L1375.17 81.4624L1375.85 81.906L1376.58 81.5779Z" fill="white"/>
<path d="M1387.58 871.578L1387.14 872.251L1387.47 872.987L1386.79 872.544L1386.06 872.872L1386.5 872.199L1386.17 871.462L1386.85 871.906L1387.58 871.578Z" fill="white"/>
<path d="M1181.58 992.578L1181.14 993.251L1181.47 993.987L1180.79 993.544L1180.06 993.872L1180.5 993.199L1180.17 992.462L1180.85 992.906L1181.58 992.578Z" fill="white"/>
<path d="M1046.58 561.578L1046.14 562.251L1046.47 562.987L1045.79 562.544L1045.06 562.872L1045.5 562.199L1045.17 561.462L1045.85 561.906L1046.58 561.578Z" fill="white"/>
<path d="M622.229 645.34L621.341 646.687L621.998 648.159L620.651 647.272L619.179 647.928L620.066 646.582L619.41 645.109L620.756 645.997L622.229 645.34Z" fill="white"/>
<path d="M374.753 475.34L373.866 476.687L374.523 478.159L373.176 477.272L371.704 477.928L372.591 476.582L371.935 475.109L373.281 475.997L374.753 475.34Z" fill="white"/>
<path d="M972.753 187.34L971.866 188.687L972.523 190.159L971.176 189.272L969.704 189.928L970.591 188.582L969.935 187.109L971.281 187.997L972.753 187.34Z" fill="white"/>
<path d="M739.753 61.3404L738.866 62.6867L739.523 64.1594L738.176 63.2723L736.704 63.9284L737.591 62.5822L736.935 61.1094L738.281 61.9965L739.753 61.3404Z" fill="white"/>
<path d="M521.753 64.3404L520.866 65.6867L521.523 67.1594L520.176 66.2723L518.704 66.9284L519.591 65.5822L518.935 64.1094L520.281 64.9965L521.753 64.3404Z" fill="white"/>
<path d="M1149.75 32.3404L1148.87 33.6867L1149.52 35.1594L1148.18 34.2723L1146.7 34.9284L1147.59 33.5822L1146.93 32.1094L1148.28 32.9965L1149.75 32.3404Z" fill="white"/>
<path d="M947.753 648.34L946.866 649.687L947.523 651.159L946.176 650.272L944.704 650.928L945.591 649.582L944.935 648.109L946.281 648.997L947.753 648.34Z" fill="white"/>
<path d="M249.753 624.34L248.866 625.687L249.523 627.159L248.176 626.272L246.704 626.928L247.591 625.582L246.935 624.109L248.281 624.997L249.753 624.34Z" fill="white"/>
<path d="M216.753 940.34L215.866 941.687L216.523 943.159L215.176 942.272L213.704 942.928L214.591 941.582L213.935 940.109L215.281 940.997L216.753 940.34Z" fill="white"/>
<path d="M106.753 565.34L105.866 566.687L106.523 568.159L105.176 567.272L103.704 567.928L104.591 566.582L103.935 565.109L105.281 565.997L106.753 565.34Z" fill="white"/>
<path d="M95.7535 878.34L94.8664 879.687L95.5225 881.159L94.1763 880.272L92.7036 880.928L93.5907 879.582L92.9345 878.109L94.2808 878.997L95.7535 878.34Z" fill="white"/>
<path d="M57.7535 332.34L56.8664 333.687L57.5225 335.159L56.1763 334.272L54.7036 334.928L55.5907 333.582L54.9345 332.109L56.2808 332.997L57.7535 332.34Z" fill="white"/>
<path d="M784.4 95.951L783.611 96.1133L783.322 96.866L783.16 96.0764L782.407 95.7877L783.197 95.6254L783.485 94.8727L783.648 95.6623L784.4 95.951Z" fill="white"/>
<path d="M992.997 239.494L992.207 239.656L991.919 240.409L991.756 239.619L991.004 239.33L991.793 239.168L992.082 238.415L992.244 239.205L992.997 239.494Z" fill="white"/>
<path d="M712.982 191.41L712.193 191.573L711.904 192.325L711.742 191.536L710.989 191.247L711.779 191.085L712.067 190.332L712.23 191.122L712.982 191.41Z" fill="white"/>
<path d="M517.114 103.022L516.325 103.184L516.036 103.937L515.873 103.147L515.121 102.859L515.91 102.696L516.199 101.944L516.361 102.733L517.114 103.022Z" fill="white"/>
<path d="M949.863 515.972L949.074 516.135L948.785 516.887L948.623 516.098L947.87 515.809L948.659 515.647L948.948 514.894L949.111 515.684L949.863 515.972Z" fill="white"/>
<path d="M1225.63 513.144L1224.85 513.306L1224.56 514.059L1224.39 513.269L1223.64 512.981L1224.43 512.818L1224.72 512.066L1224.88 512.855L1225.63 513.144Z" fill="white"/>
<path d="M1295.64 832.049L1294.85 832.211L1294.56 832.964L1294.4 832.175L1293.65 831.886L1294.43 831.724L1294.72 830.971L1294.89 831.76L1295.64 832.049Z" fill="white"/>
<path d="M984.512 964.985L983.722 965.148L983.433 965.9L983.271 965.111L982.518 964.822L983.308 964.66L983.597 963.907L983.759 964.696L984.512 964.985Z" fill="white"/>
<path d="M934.307 1197.62L933.517 1197.79L933.229 1198.54L933.066 1197.75L932.314 1197.46L933.103 1197.3L933.392 1196.55L933.554 1197.33L934.307 1197.62Z" fill="white"/>
<path d="M691.062 1003.88L690.273 1004.04L689.984 1004.79L689.822 1004L689.069 1003.71L689.859 1003.55L690.147 1002.8L690.31 1003.59L691.062 1003.88Z" fill="white"/>
<path d="M466.202 725.276L465.412 725.438L465.124 726.191L464.961 725.401L464.209 725.113L464.998 724.95L465.287 724.198L465.449 724.987L466.202 725.276Z" fill="white"/>
<path d="M858.646 581.733L857.857 581.896L857.568 582.648L857.406 581.859L856.653 581.57L857.443 581.408L857.731 580.655L857.894 581.445L858.646 581.733Z" fill="white"/>
<path d="M722.175 333.539L721.385 333.701L721.096 334.454L720.934 333.664L720.181 333.376L720.971 333.213L721.26 332.461L721.422 333.25L722.175 333.539Z" fill="white"/>
<path d="M307.103 453.04L306.314 453.202L306.025 453.955L305.863 453.165L305.11 452.877L305.899 452.714L306.188 451.962L306.35 452.751L307.103 453.04Z" fill="white"/>
<path d="M215.886 200.603L215.097 200.765L214.808 201.518L214.646 200.728L213.893 200.44L214.683 200.277L214.971 199.525L215.134 200.314L215.886 200.603Z" fill="white"/>
<path d="M667.728 208.381L666.938 208.543L666.65 209.296L666.487 208.506L665.735 208.218L666.524 208.055L666.813 207.303L666.975 208.092L667.728 208.381Z" fill="white"/>
<path d="M1066.54 611.432L1065.75 611.594L1065.46 612.347L1065.3 611.557L1064.54 611.269L1065.33 611.106L1065.62 610.354L1065.78 611.143L1066.54 611.432Z" fill="white"/>
<path d="M823.291 700.527L822.502 700.69L822.213 701.442L822.051 700.653L821.298 700.364L822.088 700.202L822.376 699.449L822.539 700.239L823.291 700.527Z" fill="white"/>
<path d="M642.272 693.456L641.482 693.618L641.194 694.371L641.031 693.582L640.279 693.293L641.068 693.13L641.357 692.378L641.519 693.167L642.272 693.456Z" fill="white"/>
<path d="M708.74 366.773L707.95 366.935L707.661 367.688L707.499 366.898L706.746 366.61L707.536 366.447L707.825 365.695L707.987 366.484L708.74 366.773Z" fill="white"/>
<path d="M990.168 392.229L989.379 392.391L989.09 393.144L988.928 392.354L988.175 392.066L988.965 391.903L989.253 391.151L989.416 391.94L990.168 392.229Z" fill="white"/>
<path d="M169.924 300.305L169.135 300.467L168.846 301.22L168.684 300.43L167.931 300.142L168.721 299.979L169.009 299.227L169.172 300.016L169.924 300.305Z" fill="white"/>
<path d="M366.5 69.788L365.711 69.9504L365.422 70.7031L365.259 69.9134L364.507 69.6247L365.296 69.4624L365.585 68.7097L365.747 69.4993L366.5 69.788Z" fill="white"/>
<path d="M763.894 451.626L763.105 451.788L762.816 452.541L762.654 451.751L761.901 451.463L762.691 451.3L762.979 450.547L763.142 451.337L763.894 451.626Z" fill="white"/>
<path d="M619.644 908.417L618.855 908.579L618.566 909.332L618.404 908.542L617.651 908.254L618.441 908.091L618.729 907.339L618.892 908.128L619.644 908.417Z" fill="white"/>
<path d="M290.133 703.356L289.343 703.518L289.054 704.271L288.892 703.481L288.139 703.192L288.929 703.03L289.218 702.277L289.38 703.067L290.133 703.356Z" fill="white"/>
<path d="M548.934 440.312L548.144 440.474L547.856 441.227L547.693 440.437L546.941 440.149L547.73 439.986L548.019 439.234L548.181 440.023L548.934 440.312Z" fill="white"/>
<path d="M1417.97 668.708L1417.18 668.87L1416.89 669.623L1416.73 668.833L1415.97 668.544L1416.76 668.382L1417.05 667.629L1417.22 668.419L1417.97 668.708Z" fill="white"/>
<path d="M1507.77 699.113L1506.98 699.275L1506.69 700.028L1506.53 699.239L1505.78 698.95L1506.57 698.787L1506.86 698.035L1507.02 698.824L1507.77 699.113Z" fill="white"/>
<path d="M956.934 1265.51L956.145 1265.67L955.856 1266.42L955.694 1265.63L954.941 1265.34L955.731 1265.18L956.019 1264.43L956.182 1265.22L956.934 1265.51Z" fill="white"/>
<path d="M725.71 1205.4L724.921 1205.56L724.632 1206.32L724.47 1205.53L723.717 1205.24L724.507 1205.08L724.795 1204.32L724.958 1205.11L725.71 1205.4Z" fill="white"/>
<path d="M935.014 805.179L934.224 805.341L933.936 806.094L933.773 805.304L933.021 805.016L933.81 804.853L934.099 804.101L934.261 804.89L935.014 805.179Z" fill="white"/>
<path d="M575.722 564.345L574.143 564.67L573.565 566.175L573.241 564.596L571.735 564.019L573.315 563.694L573.892 562.189L574.217 563.768L575.722 564.345Z" fill="white"/>
<path d="M520.939 269.146L519.36 269.47L518.783 270.976L518.458 269.397L516.953 268.819L518.532 268.494L519.109 266.989L519.434 268.568L520.939 269.146Z" fill="white"/>
<path d="M1147.44 488.349L1145.86 488.674L1145.28 490.179L1144.95 488.6L1143.45 488.022L1145.03 487.698L1145.61 486.192L1145.93 487.772L1147.44 488.349Z" fill="white"/>
<path d="M1071.78 234.498L1070.2 234.822L1069.62 236.328L1069.29 234.748L1067.79 234.171L1069.37 233.846L1069.95 232.341L1070.27 233.92L1071.78 234.498Z" fill="white"/>
<path d="M915.505 82.4696L913.925 82.7943L913.348 84.2997L913.023 82.7204L911.518 82.143L913.097 81.8183L913.675 80.313L913.999 81.8922L915.505 82.4696Z" fill="white"/>
<path d="M1382.2 503.905L1380.62 504.23L1380.04 505.735L1379.71 504.156L1378.21 503.579L1379.79 503.254L1380.37 501.749L1380.69 503.328L1382.2 503.905Z" fill="white"/>
<path d="M803.782 796.647L802.202 796.972L801.625 798.477L801.3 796.898L799.795 796.321L801.374 795.996L801.952 794.491L802.276 796.07L803.782 796.647Z" fill="white"/>
<path d="M327.192 286.116L325.612 286.441L325.035 287.946L324.71 286.367L323.205 285.79L324.784 285.465L325.362 283.96L325.686 285.539L327.192 286.116Z" fill="white"/>
<path d="M80.4114 486.228L78.8322 486.552L78.2548 488.058L77.9301 486.478L76.4248 485.901L78.004 485.576L78.5814 484.071L78.9061 485.65L80.4114 486.228Z" fill="white"/>
<path d="M267.795 143.281L266.215 143.605L265.638 145.111L265.313 143.532L263.808 142.954L265.387 142.63L265.965 141.124L266.289 142.703L267.795 143.281Z" fill="white"/>
<path d="M38.6922 356.827L37.1129 357.152L36.5355 358.657L36.2109 357.078L34.7055 356.5L36.2848 356.176L36.8621 354.67L37.1868 356.25L38.6922 356.827Z" fill="white"/>
</g>
<defs>
<linearGradient id="paint0_linear_207_178" x1="-19.8027" y1="-63.5041" x2="1769.52" y2="1422.22" gradientUnits="userSpaceOnUse">
<stop stop-color="#1D2948"/>
<stop offset="0.248198" stop-color="#141D33"/>
<stop offset="0.380763" stop-color="#0F1628"/>
<stop offset="1" stop-color="#050A16"/>
</linearGradient>
<clipPath id="clip0_207_178">
<rect width="2000" height="1422.22" fill="white" transform="translate(0 0.81543)"/>
</clipPath>
</defs>
</svg>
